<?xml version="1.0" encoding="UTF-8"?>
<svg id="Calque_1" data-name="Calque 1" xmlns="http://www.w3.org/2000/svg" viewBox="0 0 888.4 1901.98">
  <defs>
    <style>
      .cls-1 {
        fill: #fff;
        stroke: #fff;
        stroke-miterlimit: 10;
      }
    </style>
  </defs>
  <path class="cls-1" d="m623.55,54.36s6.3-45.27,52.15-53.29l162.17-.57s41.07,6.3,50.04,56.54l-1.27,409.76s-3.08,28.86-54.91,52.39l-105.62,1.68s-46.51,10.09-45.95,60.51v340.67s-4.2,40.62-58.27,60.51h-109.26s-43.42,9.81-40.62,65.84v331.42s-2.8,46.79-65.56,60.51h-88.25s-52.95,7.56-52.39,73.4l-.28,335.07s-14.01,40.9-58.27,52.67H54.01s-43.42-11.77-52.39-53.51l-1.13-412.67s14.85-47.63,55.76-52.95l101.98.28s31.94-3.36,50.71-66.68v-339.83s5.6-51.55,63.32-55.75h91.61s45.39-8.4,52.11-71.16v-327.22s5.6-54.63,67.52-59.95l91.89-.56s41.46-16.25,46.23-62.19l1.94-344.92Z"/>
</svg>